<?xml version="1.0" standalone="no"?>
<!DOCTYPE svg PUBLIC "-//W3C//DTD SVG 20010904//EN"
 "http://www.w3.org/TR/2001/REC-SVG-20010904/DTD/svg10.dtd">
<svg version="1.0" xmlns="http://www.w3.org/2000/svg"
 width="333.000000pt" height="333.000000pt" viewBox="0 0 333.000000 333.000000"
 preserveAspectRatio="xMidYMid meet">

<g transform="translate(0.000000,333.000000) scale(0.100000,-0.100000)"
fill="#000000" stroke="none">
<path d="M1429 3275 c-705 -110 -1254 -647 -1373 -1345 -31 -183 -29 -421 5
-580 12 -55 17 -58 48 -32 21 17 21 18 6 127 -80 597 184 1181 690 1522 157
105 397 200 595 234 146 25 374 27 521 4 209 -33 453 -130 630 -251 81 -55 83
-56 122 -44 l38 11 -43 33 c-214 164 -491 280 -760 320 -127 19 -359 19 -479
1z"/>
<path d="M963 2830 c-204 -103 -364 -459 -489 -1085 -18 -93 -43 -240 -56
-327 l-22 -157 -66 -6 c-208 -18 -257 -41 -247 -117 3 -22 14 -49 24 -60 19
-21 48 -22 218 -2 l57 7 -6 -29 c-12 -54 -56 -459 -56 -511 0 -42 4 -55 22
-67 29 -20 121 -21 141 -2 9 9 16 48 21 103 8 108 44 437 52 477 l6 28 102 -6
c224 -15 410 -57 539 -122 121 -61 122 -63 119 -152 -2 -42 -7 -141 -13 -220
-5 -79 -7 -152 -3 -164 9 -28 80 -58 141 -58 61 0 97 14 111 44 9 20 30 292
52 681 13 222 12 570 0 770 -42 661 -208 986 -510 1003 -68 3 -80 1 -137 -28z
m167 -167 c93 -64 154 -266 190 -628 14 -146 24 -916 12 -934 -8 -11 -13 -11
-33 2 -46 30 -205 85 -319 111 -94 21 -295 45 -372 46 -25 0 -23 28 11 243
104 636 248 1069 385 1157 38 24 93 26 126 3z"/>
<path d="M2750 2835 c-273 -55 -463 -249 -541 -553 -23 -92 -24 -126 -2 -162
29 -50 96 -65 153 -35 37 19 55 54 69 132 45 245 163 410 324 448 l27 7 0
-153 c0 -186 -16 -652 -30 -879 -43 -702 -128 -1154 -239 -1271 -62 -64 -129
-47 -166 43 -30 70 -32 273 -6 427 12 68 21 136 21 152 0 89 -171 116 -245 39
-23 -24 -29 -42 -37 -112 -5 -45 -7 -135 -3 -198 16 -280 79 -421 222 -492 58
-28 75 -32 147 -32 68 0 89 5 133 27 72 37 115 77 169 158 150 226 252 688
295 1344 7 99 12 370 12 601 0 393 -1 424 -19 460 -10 21 -30 44 -44 51 -32
16 -156 15 -240 -2z"/>
<path d="M3153 2260 c2 -67 12 -129 34 -210 97 -358 55 -757 -114 -1094 -40
-80 -100 -262 -90 -273 8 -7 107 154 155 252 128 261 187 563 163 839 -17 200
-65 394 -132 538 l-19 43 3 -95z"/>
<path d="M582 474 l-10 -35 86 -69 c298 -237 691 -363 1082 -347 166 7 281 27
428 73 l114 37 -39 21 -38 22 -95 -28 c-146 -42 -263 -59 -422 -59 -392 -1
-725 117 -1024 362 l-71 58 -11 -35z"/>
</g>
</svg>
